<svg width="392" height="396" viewBox="0 0 392 396" fill="none" xmlns="http://www.w3.org/2000/svg">
<g id="Pokeball">
<path d="M243.138 198C243.138 224.036 222.031 245.143 195.995 245.143C169.959 245.143 148.852 224.036 148.852 198C148.852 171.964 169.959 150.857 195.995 150.857C222.031 150.857 243.138 171.964 243.138 198Z" fill="#DC0A2D"/>
<path fill-rule="evenodd" clip-rule="evenodd" d="M195.995 396C295.744 396 378.265 322.239 391.99 226.286H276.023C264.374 259.244 232.942 282.857 195.995 282.857C159.048 282.857 127.615 259.244 115.966 226.286H0C13.7251 322.239 96.2461 396 195.995 396ZM115.966 169.714H0C13.7251 73.7608 96.2461 0 195.995 0C295.744 0 378.265 73.7608 391.99 169.714H276.023C264.374 136.756 232.942 113.143 195.995 113.143C159.048 113.143 127.615 136.756 115.966 169.714ZM243.138 198C243.138 224.036 222.031 245.143 195.995 245.143C169.959 245.143 148.852 224.036 148.852 198C148.852 171.964 169.959 150.857 195.995 150.857C222.031 150.857 243.138 171.964 243.138 198Z" fill="#DC0A2D"/>
</g>
</svg>
